# xmcd
#
# Track frame offsets:
#	150
#	25875
#	51834
#	80181
#	96596
#	117423
#	135432
#	157422
#	179682
#	198253
#	220830
#	244610
#	261927
#	289558
#	313644
#	336292
#
# Disc length: 4791 seconds
#
# Revision: 0
# Processed by: cddbd v1.5.2PL0 Copyright (c) Steve Scherf et al.
# Submitted via: EasyCDDAExtractor 16.0.6.1
#
DISCID=f712b510
DTITLE=Dolor Ravi - foyal blues 2
DYEAR=2013
DGENRE=Blues
TTITLE0=A Nu Life
TTITLE1=Big'n Yourself
TTITLE2=Foyal Bay Anthem
TTITLE3=Foyal Dreams
TTITLE4=Groovin With You
TTITLE5=Journey 2 Beyond
TTITLE6=L'embellie (Tribute to Paulo Rosine)
TTITLE7=Madiba Forever (Juju Dance)
TTITLE8=May Be
TTITLE9=R.I.P. Dad
TTITLE10=Song for Laddo
TTITLE11=Swap Shop
TTITLE12=Sweet Domi
TTITLE13=Tomobile
TTITLE14=Infinite Love
TTITLE15=Piano en pleurs
EXTD=
EXTT0=
EXTT1=
EXTT2=
EXTT3=
EXTT4=
EXTT5=
EXTT6=
EXTT7=
EXTT8=
EXTT9=
EXTT10=
EXTT11=
EXTT12=
EXTT13=
EXTT14=
EXTT15=
PLAYORDER=
